<svg width="47.99999999999999" height="47.99999999999999" xmlns="http://www.w3.org/2000/svg">

 <g>
  <title>background</title>
  <rect fill="none" id="canvas_background" height="402" width="582" y="-1" x="-1"/>
 </g>
 <g>
  <title>Layer 1</title>
  <path id="svg_1" fill="none" d="m0,0l48,0l0,48l-48,0l0,-48z"/>
  <path fill="#ffffff" id="svg_2" d="m15.03,42.97c-6.53,-3.1 -11.22,-9.45 -11.93,-16.97l-3,0c1.02,12.32 11.32,22 23.9,22c0.45,0 0.88,-0.04 1.32,-0.07l-7.62,-7.63l-2.67,2.67zm1.78,-13.05c-0.38,0 -0.73,-0.05 -1.05,-0.17c-0.31,-0.11 -0.58,-0.27 -0.8,-0.47c-0.22,-0.2 -0.39,-0.45 -0.51,-0.73c-0.12,-0.29 -0.18,-0.6 -0.18,-0.94l-2.6,0c0,0.72 0.14,1.35 0.42,1.9c0.28,0.55 0.65,1.01 1.12,1.37c0.47,0.37 1.01,0.64 1.63,0.83c0.62,0.2 1.26,0.29 1.94,0.29c0.74,0 1.43,-0.1 2.07,-0.3c0.64,-0.2 1.19,-0.5 1.66,-0.89s0.83,-0.87 1.1,-1.44c0.26,-0.57 0.4,-1.22 0.4,-1.95c0,-0.39 -0.05,-0.76 -0.14,-1.12c-0.1,-0.36 -0.25,-0.7 -0.45,-1.02c-0.21,-0.32 -0.48,-0.6 -0.81,-0.86c-0.33,-0.25 -0.74,-0.46 -1.21,-0.63c0.4,-0.18 0.75,-0.4 1.05,-0.66c0.3,-0.26 0.55,-0.54 0.75,-0.83c0.2,-0.3 0.35,-0.6 0.45,-0.92c0.1,-0.32 0.15,-0.64 0.15,-0.95c0,-0.73 -0.12,-1.37 -0.36,-1.92c-0.24,-0.55 -0.58,-1.01 -1.02,-1.38c-0.44,-0.37 -0.96,-0.65 -1.58,-0.84c-0.64,-0.2 -1.32,-0.29 -2.06,-0.29c-0.72,0 -1.39,0.11 -2,0.32c-0.61,0.21 -1.13,0.51 -1.57,0.89c-0.44,0.38 -0.78,0.83 -1.03,1.35c-0.25,0.52 -0.37,1.09 -0.37,1.7l2.6,0c0,-0.34 0.06,-0.64 0.18,-0.9c0.12,-0.27 0.29,-0.5 0.5,-0.68c0.21,-0.19 0.47,-0.34 0.76,-0.44c0.29,-0.1 0.61,-0.16 0.95,-0.16c0.8,0 1.39,0.21 1.78,0.62c0.39,0.41 0.58,0.99 0.58,1.73c0,0.36 -0.05,0.68 -0.16,0.97c-0.11,0.29 -0.27,0.54 -0.49,0.75c-0.22,0.21 -0.5,0.37 -0.82,0.49c-0.33,0.12 -0.72,0.18 -1.16,0.18l-1.54,0l0,2.05l1.54,0c0.44,0 0.84,0.05 1.19,0.15c0.35,0.1 0.65,0.25 0.9,0.47c0.25,0.21 0.44,0.48 0.58,0.8c0.13,0.32 0.2,0.7 0.2,1.14c0,0.81 -0.23,1.43 -0.7,1.86c-0.45,0.42 -1.08,0.63 -1.89,0.63zm17.12,-11.85c-0.63,-0.66 -1.39,-1.17 -2.27,-1.53c-0.89,-0.36 -1.86,-0.54 -2.93,-0.54l-4.73,0l0,16l4.59,0c1.11,0 2.11,-0.18 3.02,-0.54c0.91,-0.36 1.68,-0.87 2.32,-1.53c0.64,-0.66 1.14,-1.46 1.48,-2.39c0.35,-0.93 0.52,-1.98 0.52,-3.14l0,-0.79c0,-1.16 -0.18,-2.2 -0.53,-3.14c-0.35,-0.94 -0.84,-1.74 -1.47,-2.4zm-0.79,6.34c0,0.83 -0.09,1.59 -0.29,2.25c-0.19,0.67 -0.47,1.23 -0.85,1.69c-0.38,0.46 -0.85,0.81 -1.42,1.06c-0.57,0.24 -1.23,0.37 -1.99,0.37l-1.81,0l0,-11.54l1.95,0c1.44,0 2.53,0.46 3.29,1.37c0.75,0.92 1.13,2.24 1.13,3.98l0,0.82l-0.01,0zm-9.14,-24.41c-0.45,0 -0.88,0.04 -1.32,0.07l7.62,7.63l2.66,-2.66c6.54,3.09 11.23,9.44 11.94,16.96l3,0c-1.02,-12.32 -11.32,-22 -23.9,-22z"/>
 </g>
</svg>