<svg width="32" height="32" xmlns="http://www.w3.org/2000/svg">

 <g>
  <title>background</title>
  <rect fill="none" id="canvas_background" height="402" width="582" y="-1" x="-1"/>
 </g>
 <g>
  <title>Layer 1</title>
  <path id="svg_1" fill="#ffffff" d="m16,0c-6.744,0 -14,2.033 -14,6.5l0,19c0,4.465 7.256,6.5 14,6.5c6.743,0 14,-2.035 14,-6.5l0,-19c0,-4.467 -7.258,-6.5 -14,-6.5zm12,25.5c0,2.484 -5.373,4.5 -12,4.5c-6.628,0 -12,-2.016 -12,-4.5l0,-3.736c2.066,2.129 7.05,3.236 12,3.236c4.95,0 9.934,-1.107 12,-3.236l0,3.736zm0,-6l-0.004,0c0,0.01 0.004,0.021 0.004,0.031c0,2.469 -5.373,4.469 -12,4.469c-6.627,0 -12,-2 -12,-4.469c0,-0.01 0.004,-0.021 0.004,-0.031l-0.004,0l0,-3.736c2.066,2.129 7.05,3.236 12,3.236c4.95,0 9.934,-1.107 12,-3.236l0,3.736zm0,-6l-0.004,0c0,0.01 0.004,0.021 0.004,0.031c0,2.469 -5.373,4.469 -12,4.469c-6.627,0 -12,-2 -12,-4.469c0,-0.01 0.004,-0.021 0.004,-0.031l-0.004,0l0,-3.436c2.621,1.997 7.425,2.936 12,2.936c4.575,0 9.379,-0.939 12,-2.936l0,3.436zm-12,-2.5c-6.628,0 -12,-2.016 -12,-4.5c0,-2.486 5.372,-4.5 12,-4.5c6.627,0 12,2.014 12,4.5c0,2.484 -5.373,4.5 -12,4.5z"/>
  <circle id="svg_2" r="1" fill="#ffffff" cy="26" cx="25"/>
  <circle id="svg_3" r="1" fill="#ffffff" cy="20" cx="25"/>
  <circle id="svg_4" r="1" fill="#ffffff" cy="14" cx="25"/>
 </g>
</svg>