<svg width="512" height="512" xmlns="http://www.w3.org/2000/svg">

 <g>
  <title>background</title>
  <rect fill="none" id="canvas_background" height="402" width="582" y="-1" x="-1"/>
 </g>
 <g>
  <title>Layer 1</title>
  <path fill="#ffffff" id="svg_2" fill-rule="evenodd" clip-rule="evenodd" d="m200.3,137.832l127.317,0l0,-21.328c0,-17.494 -7.172,-33.412 -18.7,-44.942c-11.561,-11.528 -27.479,-18.731 -44.975,-18.731c-17.463,0 -33.412,7.172 -44.942,18.701c-11.528,11.561 -18.7,27.479 -18.7,44.973l0,21.327zm-58.111,114.582l0,-21.143l-30.322,0l-0.123,0l-12.055,0l0,21.143l42.5,0zm0,28.746l0,-21.142l-42.5,0l0,21.142l42.5,0zm0,28.778l0,-21.174l-42.5,0l0,21.174l42.5,0zm-42.5,36.349l0,21.143l42.5,0l0,-21.143l-42.5,0zm177.948,-84.228c-3.494,-3.493 -8.315,-5.656 -13.662,-5.656s-10.201,2.163 -13.692,5.656c-3.494,3.492 -5.657,8.346 -5.657,13.693c0,3.584 0.958,6.953 2.627,9.797c1.7,2.875 4.172,5.317 7.079,6.986c1.298,0.588 2.225,1.916 2.225,3.462l0,33.104l14.806,0l0,-33.104c0.03,-1.329 0.743,-2.627 1.979,-3.308c2.967,-1.669 5.471,-4.08 7.201,-6.954l0.124,-0.187c1.669,-2.874 2.659,-6.213 2.659,-9.797c-0.002,-5.347 -2.197,-10.2 -5.689,-13.692zm-13.662,-13.261c7.417,0 14.157,3.029 19.04,7.913c4.884,4.853 7.881,11.591 7.881,19.041c0,4.944 -1.359,9.643 -3.708,13.631l-0.154,0.247c-2.041,3.369 -4.792,6.274 -8.068,8.47l0,34.803c0,2.072 -1.7,3.803 -3.803,3.803l-22.408,0c-2.102,0 -3.802,-1.73 -3.802,-3.803l0,-34.803c-3.337,-2.258 -6.15,-5.225 -8.221,-8.717c-2.35,-4.02 -3.709,-8.687 -3.709,-13.631c0,-7.45 3.029,-14.188 7.882,-19.072c4.882,-4.853 11.62,-7.882 19.07,-7.882zm-92.73,-110.966l21.452,0l0,-21.328c0,-19.564 8.037,-37.4 20.957,-50.32c12.92,-12.92 30.724,-20.957 50.289,-20.957c19.598,0 37.433,8.037 50.353,20.957c12.889,12.92 20.926,30.756 20.926,50.32l0,21.328l21.482,0l0,-19.102c0,-25.501 -10.447,-48.684 -27.263,-65.498c-16.784,-16.814 -39.966,-27.23 -65.466,-27.23s-48.682,10.416 -65.498,27.23c-16.814,16.814 -27.232,39.997 -27.232,65.498l0,19.102zm185.458,7.604l-185.458,0l0,19.257l185.458,0l0,-19.257zm7.572,19.256l23.832,0l0,-19.257l-23.832,0l0,19.257zm-226.102,0l25.469,0l0,-19.257l-25.469,0l0,19.257zm35.823,313.734c1.206,0 2.288,-0.494 3.061,-1.268c0.772,-0.772 1.267,-1.886 1.267,-3.06c0,-1.205 -0.463,-2.287 -1.235,-3.029c-0.774,-0.773 -1.825,-1.236 -2.967,-1.267l0,0l-0.063,0l-0.062,0l-0.03,0l-0.063,0l0,0c-1.143,0.03 -2.194,0.493 -2.936,1.235l-0.154,0.155c-0.681,0.772 -1.112,1.792 -1.112,2.905c0,1.205 0.495,2.287 1.267,3.06l0.155,0.154c0.74,0.681 1.76,1.115 2.872,1.115zm24.851,-35.176c1.176,0 2.257,-0.494 3.031,-1.267c0.804,-0.773 1.267,-1.854 1.267,-3.061c0,-1.175 -0.463,-2.257 -1.267,-3.028l-0.125,-0.155c-0.741,-0.681 -1.701,-1.082 -2.781,-1.112l-0.125,0l-0.154,0c-1.142,0.03 -2.164,0.494 -2.904,1.236c-0.774,0.772 -1.269,1.885 -1.269,3.06c0,1.206 0.495,2.287 1.269,3.061c0.772,0.772 1.853,1.266 3.058,1.266zm64.818,31.714c1.174,0 2.257,-0.495 3.029,-1.267l0.154,-0.124c0.711,-0.773 1.112,-1.793 1.112,-2.906c0,-1.205 -0.463,-2.287 -1.235,-3.06c-0.773,-0.742 -1.825,-1.236 -2.938,-1.268l-0.029,0l-0.032,0l-0.062,0l-0.061,0l-0.032,0l-0.031,0c-1.143,0.031 -2.193,0.495 -2.936,1.236c-0.772,0.804 -1.268,1.886 -1.268,3.091c0,1.175 0.495,2.257 1.268,3.03c0.773,0.805 1.856,1.268 3.061,1.268zm87.196,2.194c0.773,0.773 1.854,1.268 3.061,1.268c1.111,0 2.133,-0.434 2.905,-1.113l0.122,-0.154c0.774,-0.772 1.27,-1.854 1.27,-3.06c0,-1.113 -0.434,-2.133 -1.114,-2.905l-0.155,-0.155c-0.74,-0.742 -1.791,-1.205 -2.936,-1.235l0,0l-0.061,0l-0.031,0l-0.063,0l-0.031,0l-0.029,0c-1.145,0.03 -2.195,0.493 -2.938,1.235c-0.772,0.773 -1.268,1.855 -1.268,3.061s0.496,2.286 1.268,3.058zm-24.819,-35.175c0.772,0.772 1.853,1.267 3.028,1.267c1.205,0 2.287,-0.494 3.061,-1.267c0.804,-0.773 1.267,-1.854 1.267,-3.061c0,-1.175 -0.495,-2.287 -1.237,-3.028c-0.771,-0.773 -1.791,-1.237 -2.936,-1.268l-0.154,0l-0.125,0c-1.142,0.03 -2.163,0.525 -2.903,1.268c-0.804,0.771 -1.269,1.854 -1.269,3.028c0,1.145 0.401,2.164 1.112,2.906l0.156,0.155zm3.028,8.871c-3.275,0 -6.243,-1.329 -8.406,-3.493l-0.248,-0.277c-2.01,-2.134 -3.246,-5.008 -3.246,-8.161c0,-3.276 1.328,-6.243 3.494,-8.407c1.266,-1.298 2.842,-2.287 4.604,-2.875l0,-5.068l-6.521,-6.522l-14.127,14.126l0,20.987c0,2.103 -1.729,3.802 -3.801,3.802c-2.102,0 -3.802,-1.699 -3.802,-3.802l0,-22.564c0,-1.05 0.433,-2.008 1.112,-2.688l15.238,-15.238l-13.692,-13.693l-32.209,0l0,62.376c1.762,0.618 3.34,1.607 4.606,2.874c2.164,2.164 3.492,5.163 3.492,8.438c0,3.122 -1.204,5.997 -3.244,8.129l-0.248,0.278c-2.132,2.165 -5.131,3.493 -8.407,3.493c-3.275,0 -6.243,-1.328 -8.406,-3.493c-2.166,-2.163 -3.494,-5.161 -3.494,-8.407c0,-3.275 1.328,-6.243 3.494,-8.406c1.267,-1.299 2.843,-2.288 4.604,-2.906l0,-57.832l-10.323,10.354l0,34.65c0,2.102 -1.701,3.802 -3.803,3.802s-3.801,-1.7 -3.801,-3.802l0,-36.227c0,-1.144 0.493,-2.164 1.297,-2.844l10.479,-10.479l-25.47,0l-13.692,13.693l15.238,15.238c0.71,0.681 1.112,1.639 1.112,2.688l0,22.564c0,2.103 -1.7,3.802 -3.771,3.802c-2.102,0 -3.802,-1.699 -3.802,-3.802l0,-20.987l-14.156,-14.126l-6.522,6.522l0,5.068c1.639,0.557 3.092,1.453 4.327,2.628l0.279,0.247c2.164,2.164 3.492,5.131 3.492,8.407c0,3.308 -1.328,6.275 -3.492,8.438c-2.134,2.164 -5.131,3.493 -8.409,3.493c-3.306,0 -6.273,-1.329 -8.437,-3.493c-2.134,-2.163 -3.494,-5.162 -3.494,-8.438c0,-3.245 1.36,-6.243 3.494,-8.407c1.297,-1.268 2.874,-2.256 4.636,-2.875l0,-6.645c0,-1.021 0.402,-1.979 1.113,-2.689l21.359,-21.328l-20.648,0l-19.07,19.041l0,46.797c1.762,0.587 3.337,1.576 4.604,2.874c2.195,2.164 3.523,5.132 3.523,8.408s-1.329,6.274 -3.492,8.407c-2.164,2.163 -5.162,3.493 -8.438,3.493c-3.122,0 -5.996,-1.206 -8.13,-3.215l-0.277,-0.248c-2.164,-2.163 -3.494,-5.161 -3.494,-8.438c0,-3.122 1.237,-5.997 3.215,-8.13l0.279,-0.278c1.298,-1.298 2.874,-2.287 4.606,-2.874l0,-48.374c0,-1.02 0.432,-1.978 1.113,-2.689l14.805,-14.774l-44.943,0c-6.459,0 -12.364,-2.781 -16.877,-7.355c-3.771,-3.803 -6.552,-8.871 -7.881,-14.59l29.58,0l0.093,0l0.093,0l0,0l0.093,0l0,-0.031l0.091,0l0,0l0.125,0l0,0l0.093,-0.031l0,0l0.093,0l0,0l0.091,-0.03l0,0l0.093,0l0,0l0.093,-0.032l0,0l0.093,-0.03l0,0l0.062,-0.03l0,0l0.093,-0.031l0,0l0.093,-0.03l0,0l0.093,-0.032l0,0l0.093,-0.03l0,0l0.062,-0.03l0,0l0.093,-0.031l0,-0.031l0.093,-0.031l0,0l0.062,-0.03l0,0l0.093,-0.03l0,-0.031l0.091,-0.031l0,0l0.063,-0.062l0,0l0.093,-0.03l0,0l0.062,-0.063l0,0l0.061,-0.062l0,0l0.093,-0.032l0,-0.03l0.062,-0.03l0,0l0.061,-0.063l0,0l0.093,-0.062l0,0l0.062,-0.062l0,0l0.063,-0.063l0,0l0.062,-0.062l0,0l0.062,-0.093l0,0l0.061,-0.062l0,0l0.063,-0.062l0,0l0.062,-0.063l0,0l0.03,-0.093l0,0l0.063,-0.062l0,0l0.062,-0.063l0,-0.03l0.03,-0.062l0,0l0.063,-0.063l0,-0.03l0.062,-0.063l0,0l0.03,-0.093l0,0l0.032,-0.062l0,0l0.062,-0.093l0,0l0.031,-0.092l0,0l0.032,-0.063l0,0l0.03,-0.094l0,0l0.032,-0.092l0,0l0.03,-0.093l0,0l0.031,-0.062l0,-0.031l0.032,-0.062l0,-0.03l0.03,-0.063l0,-0.031l0.032,-0.062l0,-0.031l0,-0.062l0,-0.031l0.03,-0.062l0,0l0,-0.093l0,-0.031l0.032,-0.062l0,-0.03l0,-0.094l0,0l0.031,-0.093l0,0l0,-0.092l0,0l0,-0.093l0,0l0,-0.094l0,0l0,-28.652l0,-0.093l0,-0.124l0,-28.529l0,-0.123l0,-0.094l0,-28.561l0,-0.093l0,-0.093l0,-28.561l0,-0.092l0,-0.094l0,-28.652c0,-2.103 -1.7,-3.802 -3.802,-3.802l-30.354,0l-0.03,-17.805l199.769,0c2.102,0 3.802,-1.7 3.802,-3.802s-1.7,-3.802 -3.802,-3.802l-199.776,0l-0.031,-25.964l18.7,0l0.093,0l257.54,0l0.093,0l20.308,0l0,189.848l-220.634,0c-2.103,0 -3.803,1.699 -3.803,3.801c0,2.103 1.7,3.802 3.803,3.802l220.57,0c-0.463,7.326 -3.275,13.909 -7.571,18.763c-4.638,5.223 -10.975,8.469 -17.929,8.469l-44.974,0l14.838,14.774c0.68,0.712 1.112,1.67 1.112,2.689l0,48.374c1.762,0.587 3.338,1.576 4.604,2.874l0.279,0.278c1.978,2.133 3.215,5.008 3.215,8.13c0,3.276 -1.33,6.274 -3.494,8.438l-0.277,0.248c-2.134,2.009 -5.008,3.215 -8.129,3.215c-3.309,0 -6.275,-1.33 -8.439,-3.463c-2.132,-2.163 -3.492,-5.161 -3.492,-8.438s1.36,-6.244 3.492,-8.408c1.299,-1.298 2.875,-2.287 4.637,-2.874l0,-46.786l-19.071,-19.041l-20.616,0l21.327,21.328c0.71,0.711 1.112,1.669 1.112,2.689l0,6.645c1.762,0.588 3.34,1.577 4.606,2.875c2.195,2.164 3.523,5.162 3.523,8.407c0,3.276 -1.328,6.275 -3.492,8.438c-2.162,2.164 -5.13,3.493 -8.438,3.493zm-186.881,-112.17l0,-21.174l-42.5,0l0,21.174l42.5,0z"/>
 </g>
</svg>