<svg width="128" height="128" xmlns="http://www.w3.org/2000/svg">

 <title/>
 <g>
  <title>background</title>
  <rect fill="none" id="canvas_background" height="402" width="582" y="-1" x="-1"/>
 </g>
 <g>
  <title>Layer 1</title>
  <path stroke="#ffffff" fill="none" id="svg_1" d="m52,28c-19.88,0 -36,10.75 -36,24c0,9.9 9,18.4 21.83,22.07l0,13.93l12,-12c0.7,0 1.41,0 2.12,0c19.88,0 36,-10.75 36,-24s-16.07,-24 -35.95,-24z" class="cls-1"/>
  <path stroke="#000000" stroke-opacity="0" fill="none" id="svg_2" d="m83.64,40.55c12.94,15.85 -4.23,35.45 -31.64,35.45c-0.71,0 -1.42,0 -2.12,0l-2.55,2.55c8,7 20,9.87 30.79,9.45l12,12l0,-13.93c32.17,-9.18 27.7,-40.59 -6.48,-45.52z" class="cls-2"/>
  <path fill="#ffffff" id="svg_3" d="m22.88,40.7a26.72,26.72 0 0 1 4.33,-3.7a2,2 0 0 0 -2.28,-3.29a30.81,30.81 0 0 0 -4.93,4.29a2,2 0 0 0 2.88,2.7z" class="cls-3"/>
  <path fill="#ffffff" id="svg_4" d="m31.7,34.39c8.67,-4.21 19.15,-5.22 28.31,-3.77a2,2 0 0 0 0.63,-4c-10.18,-1.61 -21.43,-0.37 -30.68,4.12a2,2 0 0 0 1.74,3.65z" class="cls-3"/>
  <path fill="#ffffff" id="svg_5" d="m65.08,31.7c20.72,5.65 27.57,22.4 13.63,33.86a2,2 0 0 0 2.54,3.09c16.13,-13.26 9.31,-34.15 -15.12,-40.8a2,2 0 0 0 -1.05,3.85z" class="cls-3"/>
  <path fill="#ffffff" id="svg_6" d="m90.92,44.25c9,2.88 15.81,8.36 18.15,14.65a2,2 0 0 0 3.75,-1.39c-2.82,-7.51 -10.35,-13.77 -20.68,-17.07a2,2 0 0 0 -1.22,3.81z" class="cls-3"/>
  <path fill="#ffffff" id="svg_7" d="m110,64c0,10.17 -10.38,17.29 -20.38,20.15a2,2 0 0 0 -1.45,1.92l0,9.1c-10.77,-10.76 -8.26,-9.17 -12.17,-9.17a50.2,50.2 0 0 1 -11.9,-1.4a2,2 0 0 0 -0.95,3.88a54.63,54.63 0 0 0 14.17,1.52l11.43,11.43a2,2 0 0 0 3.42,-1.43l0,-12.45c11.31,-3.62 21.83,-11.95 21.83,-23.55a2,2 0 0 0 -4,0z" class="cls-3"/>
  <path fill="#ffffff" id="svg_8" d="m59,83a35.55,35.55 0 0 1 -8.71,-4.7l0.36,-0.36a50.77,50.77 0 0 0 25.07,-5.65a2,2 0 0 0 -1.92,-3.51a46.3,46.3 0 0 1 -21.8,5.22c-3.94,0 -1.42,-1.57 -12.17,9.17c0,-9.34 0.45,-10.48 -1.45,-11c-16.38,-4.69 -24.56,-16.78 -18.29,-27.73a2,2 0 0 0 -3.47,-2c-7.25,12.66 0.89,27.24 19.22,33.1l0,12.46a2,2 0 0 0 3.41,1.41l8.21,-8.21a38.7,38.7 0 0 0 10.16,5.58a2,2 0 0 0 1.38,-3.78z" class="cls-3"/>
 </g>
</svg>